<?xml version="1.0" encoding="iso-8859-1"?>
<!-- Uploaded to: SVG Repo, www.svgrepo.com, Generator: SVG Repo Mixer Tools -->
<svg version="1.1" id="Layer_1" xmlns="http://www.w3.org/2000/svg" xmlns:xlink="http://www.w3.org/1999/xlink" 
	 viewBox="0 0 512 512" xml:space="preserve">
<path style="fill:#FFDC64;" d="M179.04,290.205c0,47.227-38.285,85.512-85.511,85.512S8.017,337.432,8.017,290.205H179.04z"/>
<path style="fill:#FFC350;" d="M67.889,296.881c-0.211-3.633,2.089-6.676,4.829-6.676h-64.7c0,47.227,38.285,85.512,85.511,85.512
	c7.603,0,14.945-1.068,21.963-2.93C89.545,363.632,70.017,333.531,67.889,296.881z"/>
<path style="fill:#FFDC64;" d="M503.983,290.205c0,47.227-38.285,85.512-85.511,85.512s-85.512-38.285-85.512-85.512H503.983z"/>
<g>
	<path style="fill:#FFC350;" d="M392.832,296.881c-0.211-3.633,2.089-6.676,4.829-6.676h-64.7c0,47.227,38.285,85.512,85.511,85.512
		c7.603,0,14.945-1.068,21.963-2.93C414.489,363.632,394.96,333.531,392.832,296.881z"/>
	<rect x="238.898" y="59.324" style="fill:#FFC350;" width="34.205" height="393.353"/>
</g>
<g>
	<circle style="fill:#FFDC64;" cx="256" cy="50.772" r="25.653"/>
	<path style="fill:#FFDC64;" d="M350.063,486.881H161.937c-9.446,0-17.102-7.656-17.102-17.102l0,0
		c0-9.446,7.656-17.102,17.102-17.102h188.125c9.446,0,17.102,7.656,17.102,17.102l0,0
		C367.165,479.225,359.508,486.881,350.063,486.881z"/>
</g>
<path style="fill:#FFC350;" d="M221.795,469.779c0-9.446,7.658-17.102,17.102-17.102h-76.96c-9.445,0-17.102,7.656-17.102,17.102
	c0,9.445,7.658,17.102,17.102,17.102h76.96C229.453,486.881,221.795,479.223,221.795,469.779z"/>
<path d="M511.459,287.329l0.006-0.002L429.214,73.474c8.491-4.035,14.377-12.692,14.377-22.701c0-4.427-3.589-8.017-8.017-8.017
	c-4.427,0-8.017,3.589-8.017,8.017c0,5.01-4.076,9.086-9.086,9.086c-3.416,0-6.513-1.889-8.083-4.929
	c-3.936-7.622-11.015-12.174-18.937-12.174H288.697c-3.606-14.707-16.895-25.653-32.699-25.653S226.908,28.049,223.3,42.756H120.545
	c-7.922,0-15.001,4.551-18.937,12.174c-1.568,3.04-4.665,4.929-8.081,4.929c-5.01,0-9.086-4.076-9.086-9.086
	c0-4.427-3.589-8.017-8.017-8.017s-8.017,3.589-8.017,8.017c0,10.009,5.885,18.666,14.377,22.701L0.534,287.327l0.006,0.002
	C0.197,288.223,0,289.19,0,290.205c0,51.572,41.956,93.528,93.528,93.528s93.528-41.956,93.528-93.528
	c0-1.014-0.197-1.982-0.541-2.875l0.006-0.002L104.273,73.478c4.892-2.311,8.996-6.178,11.585-11.193
	c0.423-0.821,2.013-3.496,4.69-3.496h102.755c1.33,5.422,3.974,10.333,7.58,14.372V444.66h-68.944
	c-13.851,0-25.119,11.268-25.119,25.119s11.268,25.119,25.119,25.119h188.125c13.851,0,25.119-11.268,25.119-25.119
	s-11.269-25.119-25.12-25.119h-68.944V73.161c3.604-4.039,6.249-8.95,7.579-14.372h102.755c2.677,0,4.267,2.675,4.69,3.496
	c2.589,5.014,6.692,8.883,11.585,11.193l-82.25,213.848l0.006,0.002c-0.344,0.894-0.541,1.861-0.541,2.875
	c0,51.572,41.956,93.528,93.528,93.528S512,341.777,512,290.205C512,289.19,511.803,288.223,511.459,287.329z M93.528,90.207
	l73.839,191.981H19.689L93.528,90.207z M93.528,367.699c-40.024,0-73.058-30.501-77.083-69.478H170.61
	C166.586,337.198,133.552,367.699,93.528,367.699z M256,33.136c9.725,0,17.637,7.912,17.637,17.637S265.725,68.409,256,68.409
	s-17.637-7.912-17.637-17.637S246.275,33.136,256,33.136z M359.148,469.779c0,5.01-4.076,9.086-9.086,9.086H161.937
	c-5.01,0-9.086-4.076-9.086-9.086s4.076-9.086,9.086-9.086h188.125C355.073,460.693,359.148,464.769,359.148,469.779z
	 M246.914,444.66V83.187c2.892,0.812,5.938,1.256,9.086,1.256c3.148,0,6.193-0.444,9.086-1.256V444.66H246.914z M492.311,282.188
	H344.633l73.839-191.981L492.311,282.188z M418.472,367.699c-40.024,0-73.058-30.501-77.083-69.478h154.165
	C491.53,337.198,458.495,367.699,418.472,367.699z"/>
</svg>